<svg xmlns="http://www.w3.org/2000/svg" width="60" height="60" fill="none"><path fill="#fff" d="M29.858 60.002c16.49 0 29.859-13.432 29.859-30.001S46.349 0 29.858 0C13.368 0 0 13.432 0 30c0 16.57 13.368 30.002 29.858 30.002"/><path fill="#000" d="M55.83 19.344c-2.834-6.983-8.196-12.435-15.094-15.35a27.7 27.7 0 0 0-10.857-2.215c-3.728 0-7.208.709-10.623 2.108-6.948 2.848-12.374 8.236-15.275 15.17-6 14.334.724 30.902 14.99 36.93a27.7 27.7 0 0 0 10.846 2.206c11.35 0 21.52-6.78 25.911-17.27 2.901-6.934 2.94-14.597.105-21.58zM7.262 38.892c.518 0 1.042-.013 1.556-.038 7.95-.37 15.418 2.004 22.195 7.056 2.06 1.537 3.457 3.264 4.267 5.283.469 1.166.453 2.274-.042 3.122l-.112.193-.218.046a24.662 24.662 0 0 1-14.733-1.434C14.18 50.586 9.303 45.654 6.798 39.592l-.288-.698h.751zm3.683-8.428a19.3 19.3 0 0 1-3.186-3.85c-.937-1.488-1.451-3.049-1.527-4.646l-.004-.098.032-.091c.179-.515.372-1.026.577-1.516A24.92 24.92 0 0 1 19.49 7.178l.64-.292.068.704c.285 2.92 1.91 5.648 4.97 8.342 3.154 2.777 7.1 4.995 12.066 6.777 4.579 1.645 8.544 4.006 11.785 7.02 2.834 2.634 4.32 5.463 4.419 8.407l.003.095-.032.09A24.914 24.914 0 0 1 40.21 52.81l-.643.293-.066-.706c-.399-4.247-3.613-7.274-5.994-9.183-3.045-2.438-6.639-4.371-10.984-5.913-4.49-1.594-8.386-3.893-11.577-6.833zm39.415-9.286q-.364.007-.729.008c-8.3 0-15.711-2.722-22.03-8.09-1.11-.944-2.147-2.353-3.087-4.187-.616-1.207-.631-2.364-.041-3.264l.114-.173.203-.042A24.7 24.7 0 0 1 39.535 6.86c6.031 2.55 10.92 7.515 13.414 13.623l.292.713-.767-.015a51 51 0 0 0-2.113-.002z"/></svg>