<svg xmlns="http://www.w3.org/2000/svg" width="151" height="54" fill="none"><path fill="#fff" d="M1.657 45.429c0-3.502 2.302-5.782 5.57-5.782 2.887 0 5.07 1.626 5.07 4.173v.2h-1.284v-.2c0-1.91-1.317-3.016-3.77-3.016-2.785 0-4.337 1.575-4.337 4.625s1.552 4.625 4.337 4.625c2.451 0 3.77-1.106 3.77-3.016v-.2h1.284v.2c0 2.547-2.168 4.173-5.07 4.173-3.268 0-5.57-2.28-5.57-5.782M13.884 51.043v-8.28h1.068v2.264h.083c.25-1.323 1.184-2.43 2.903-2.43 1.901 0 2.736 1.406 2.736 2.948v.822H19.49v-.637c0-1.407-.584-2.095-2.019-2.095-1.667 0-2.402 1.056-2.402 2.917v4.491h-1.186M21.62 46.905c0-2.515 1.668-4.307 4.321-4.307 2.42 0 4.136 1.407 4.136 3.872 0 .301-.034.553-.083.77h-7.256c.067 1.86 1.017 2.984 3.203 2.984 1.935 0 2.835-.721 2.835-1.928v-.118h1.184v.118c0 1.726-1.702 2.917-4.004 2.917-2.652 0-4.337-1.676-4.337-4.306zm1.118-.403h6.222v-.251c0-1.743-1.1-2.665-3.036-2.665-2.135 0-3.102 1.105-3.186 2.916M31.212 49.099c0-1.357 1.117-1.945 2.652-2.112l3.92-.437v-.637c0-1.609-.7-2.245-2.502-2.245-1.803 0-2.702.636-2.702 2.095v.066h-1.184v-.066c0-1.743 1.434-3.167 3.97-3.167 2.534 0 3.568 1.441 3.568 3.268v5.178h-1.068v-2.23h-.084c-.483 1.526-1.935 2.397-3.853 2.397-1.619 0-2.719-.77-2.719-2.112zm2.986 1.19c2.002 0 3.586-.889 3.586-2.883v-.067l-3.552.403c-1.235.118-1.834.419-1.834 1.273s.55 1.273 1.8 1.273M44.154 51.043c-1.634 0-2.685-.686-2.685-2.63v-4.625H40v-1.022h1.469v-1.977h1.2v1.977h3.27v1.022h-3.27v4.691c0 1.157.568 1.476 1.77 1.476h1.5v1.088zM47.239 41.71v-1.893h1.184v1.893zm0 9.333v-8.28h1.184v8.28zM53.511 51.043l-3.937-8.28h1.285l3.335 7.106h.1l3.32-7.105h1.284l-3.937 8.28h-1.452zM59.647 46.905c0-2.515 1.668-4.307 4.32-4.307 2.42 0 4.137 1.407 4.137 3.872 0 .301-.035.553-.084.77h-7.255c.066 1.86 1.017 2.984 3.202 2.984 1.936 0 2.835-.721 2.835-1.928v-.118h1.184v.118c0 1.726-1.702 2.917-4.003 2.917-2.653 0-4.338-1.676-4.338-4.306zm1.118-.403h6.221v-.251c0-1.743-1.1-2.665-3.036-2.665-2.134 0-3.102 1.105-3.185 2.916M72.323 45.429c0-3.502 2.302-5.782 5.57-5.782 2.887 0 5.07 1.626 5.07 4.173v.2H81.68v-.2c0-1.91-1.317-3.016-3.77-3.016-2.785 0-4.337 1.575-4.337 4.625s1.55 4.625 4.337 4.625c2.451 0 3.77-1.106 3.77-3.016v-.2h1.284v.2c0 2.547-2.168 4.173-5.07 4.173-3.268 0-5.57-2.28-5.57-5.782M84.115 46.905c0-2.515 1.786-4.307 4.47-4.307 2.685 0 4.488 1.794 4.488 4.307 0 2.512-1.786 4.306-4.488 4.306-2.701 0-4.47-1.794-4.47-4.306m7.789 0c0-1.995-1.051-3.236-3.319-3.236s-3.303 1.24-3.303 3.236 1.034 3.235 3.303 3.235 3.319-1.224 3.319-3.235M94.638 51.043v-8.28h1.068v2.498h.066c.234-1.391 1.184-2.665 3.235-2.665 1.835 0 2.869 1.14 3.137 2.75h.083c.234-1.425 1.218-2.75 3.286-2.75s3.269 1.525 3.269 3.62v4.827h-1.183v-4.659c0-1.843-.784-2.697-2.518-2.697-1.985 0-2.786 1.157-2.786 3.351v4.005h-1.183v-4.659c0-1.843-.767-2.697-2.503-2.697-2.002 0-2.785 1.157-2.785 3.351v4.005h-1.186M110.716 53.892V42.764h1.068v2.33h.133c.366-1.491 1.601-2.498 3.552-2.498 2.569 0 4.035 1.794 4.035 4.307 0 2.512-1.451 4.306-4.07 4.306-1.817 0-3.136-1.004-3.519-2.596h-.017v5.279h-1.184zm4.403-3.771c1.919 0 3.186-.822 3.186-3.218s-1.284-3.201-3.151-3.201c-2.051 0-3.252 1.157-3.252 3.2v.151c0 1.962 1.284 3.068 3.219 3.068zM120.523 49.099c0-1.357 1.118-1.945 2.653-2.112l3.92-.437v-.637c0-1.609-.701-2.245-2.503-2.245s-2.702.636-2.702 2.095v.066h-1.184v-.066c0-1.743 1.435-3.167 3.969-3.167 2.535 0 3.569 1.441 3.569 3.268v5.178h-1.068v-2.23h-.083c-.484 1.526-1.936 2.397-3.854 2.397-1.618 0-2.719-.77-2.719-2.112zm2.985 1.19c2.001 0 3.586-.889 3.586-2.883v-.067l-3.552.403c-1.233.118-1.835.419-1.835 1.273s.55 1.273 1.801 1.273M130.196 51.043v-8.28h1.068v2.6h.083c.283-1.408 1.452-2.765 3.503-2.765 2.318 0 3.47 1.659 3.47 3.62v4.827h-1.184v-4.659c0-1.71-.818-2.698-2.702-2.698-2.001 0-3.052 1.224-3.052 3.352v4.005h-1.184zM140.303 53.892v-1.089h1.25c.835 0 1.152-.252 1.469-.938l.4-.839-4.087-8.262h1.302l2.419 4.926.916 2.028h.101l.884-2.043 2.284-4.911h1.302l-4.47 9.435c-.602 1.273-1.368 1.693-2.736 1.693zM149.177 51.043v-2.33h1.468v2.33zM12.41 16.509l-.515-.084c-1.26-.156-4.607-.574-4.607-2.347 0-1.313 1.94-2.013 3.338-2.013 2.62 0 4.925 1.13 6.654 2.132l3.083-4.051c-3.024-2.231-5.965-3.226-9.52-3.226-2.238 0-9.535.526-9.535 7.286 0 2.475 1.063 4.272 3.248 5.498 1.854 1.04 4.106 1.43 5.751 1.716l.188.032c.178.03.4.061.656.096 1.535.207 4.104.554 4.104 2.129 0 1.367-1.53 2.358-3.639 2.358-1.087 0-2.252-.185-3.464-.549a6.775 6.775 0 0 0-7.223 2.215c3.03 2.37 6.553 3.522 10.773 3.522 3.03 0 5.398-.664 7.04-1.97 1.627-1.294 2.45-3.155 2.45-5.532 0-5.714-4.87-6.547-8.783-7.214zM26.877.703c-1.833 0-3.325 1.422-3.325 3.168s1.492 3.213 3.325 3.213q.13 0 .261-.01a3.24 3.24 0 0 0 2.896-2.484 3.13 3.13 0 0 0-.598-2.652 3.25 3.25 0 0 0-2.56-1.235M23.934 30.948h5.952V9.551c-3.29.116-5.952 2.674-5.952 5.744V30.95zM124.804.703c-1.833 0-3.325 1.422-3.325 3.168s1.492 3.213 3.325 3.213q.13 0 .261-.01a3.24 3.24 0 0 0 2.896-2.484 3.13 3.13 0 0 0-.598-2.652 3.25 3.25 0 0 0-2.559-1.235M121.861 30.948h5.952V9.551c-3.29.116-5.952 2.674-5.952 5.744V30.95zM84.84 6.922c-4.37 0-12.632 2.535-12.632 12.13 0 2.252.45 4.253 1.335 5.952.769 1.473 1.87 2.726 3.271 3.725 3.254 2.316 6.966 2.497 8.026 2.497 2.406 0 4.521-.406 6.29-1.204 1.406-.637 2.597-1.524 3.54-2.637 1.247-1.472 1.729-2.976 1.879-3.554h-.243c-2.423 0-4.9.517-7.356 1.535-1.084.45-2.467.677-4.112.677-.594 0-5.817-.128-6.692-4.518l-.057-.288h18.76c.037-.433.108-1.413.108-2.743C96.742 10.9 90.699 6.926 84.84 6.926zM78.29 17.13l.028-.267c.245-2.292 2.376-4.757 6.481-4.757 3.298 0 5.556 2.417 5.835 4.755l.032.269H78.289M110.295 16.509l-.514-.086c-1.26-.156-4.607-.574-4.607-2.347 0-1.313 1.939-2.013 3.337-2.013 2.622 0 4.926 1.13 6.654 2.132l3.083-4.052c-3.024-2.23-5.965-3.225-9.521-3.225-2.236 0-9.534.526-9.534 7.286 0 2.475 1.063 4.272 3.249 5.498 1.853 1.04 4.105 1.43 5.749 1.716l.187.032c.179.03.401.061.657.096 1.535.207 4.104.554 4.104 2.13 0 1.366-1.531 2.357-3.639 2.357-1.129 0-2.34-.198-3.6-.589a6.6 6.6 0 0 0-1.958-.297c-2.047 0-3.916.93-5.134 2.553 3.03 2.371 6.556 3.523 10.777 3.523 3.03 0 5.398-.664 7.041-1.97 1.626-1.294 2.45-3.155 2.45-5.532 0-5.715-4.871-6.547-8.783-7.214zM142.217 16.509l-.514-.086c-1.26-.156-4.607-.574-4.607-2.347 0-1.313 1.939-2.013 3.338-2.013 2.622 0 4.925 1.13 6.654 2.132l3.083-4.052c-3.024-2.23-5.965-3.225-9.521-3.225-2.237 0-9.534.526-9.534 7.286 0 2.475 1.063 4.272 3.248 5.498 1.854 1.04 4.106 1.43 5.749 1.716l.188.032c.178.03.4.061.656.096 1.535.207 4.104.554 4.104 2.13 0 1.366-1.531 2.357-3.639 2.357-1.129 0-2.339-.198-3.599-.589a6.6 6.6 0 0 0-1.958-.297c-2.047 0-3.916.93-5.134 2.553 3.03 2.371 6.555 3.523 10.777 3.523 3.03 0 5.398-.664 7.041-1.97 1.626-1.294 2.449-3.155 2.449-5.532 0-5.715-4.87-6.547-8.783-7.214zM66.09.724h-5.8v6.287h-2.838v5.127h2.838V25.42c0 2.284.638 3.743 2.006 4.587 1.172.725 2.872 1.033 5.682 1.033.807 0 1.871-.072 2.604-.146v-4.911c-.435.04-.885.059-1.374.059-3.117 0-3.117-2.53-3.117-3.746V12.136h.235c2.44 0 4.424-2.004 4.424-4.467v-.66H66.09V.724zM46.23 6.6c-2.158 0-4.674 1.046-6.12 2.545l-.404.419V7.042H33.81v23.906h5.897V18.286c-.057-2.378.467-4.171 1.554-5.33 1.104-1.175 2.461-1.348 3.172-1.348 3.122 0 4.77 1.788 4.77 5.17v7.63c0 3.494 2.714 6.405 6.068 6.536V16.778c0-6.85-2.958-10.178-9.04-10.178"/></svg>