<svg width="216" height="60" viewBox="0 0 216 60" fill="none" xmlns="http://www.w3.org/2000/svg">
<path d="M29.8583 60.0019C46.3486 60.0019 59.7167 46.57 59.7167 30.0009C59.7167 13.4319 46.3486 0 29.8583 0C13.368 0 0 13.4319 0 30.0009C0 46.57 13.368 60.0019 29.8583 60.0019Z" fill="white"/>
<path d="M55.8309 19.3442C52.9963 12.3611 47.6344 6.9088 40.7357 3.99392C37.2598 2.52409 33.6075 1.77869 29.8792 1.77869C26.1509 1.77869 22.6712 2.48787 19.256 3.88716C12.308 6.73532 6.88162 12.1228 3.9806 19.0564C-2.01877 33.3905 4.70538 49.959 18.9714 55.9871C22.4341 57.4512 26.0826 58.1928 29.8166 58.1928C41.1664 58.1928 51.3361 51.4136 55.7285 40.9227C58.6295 33.9892 58.6674 26.3254 55.8328 19.3423L55.8309 19.3442ZM7.26109 38.8924C7.77906 38.8924 8.30273 38.8791 8.8169 38.8543C16.7667 38.4844 24.2346 40.8579 31.0119 45.9098C33.0724 47.4464 34.4688 49.1736 35.279 51.1925C35.7477 52.3592 35.7325 53.4668 35.2373 54.3151L35.1253 54.5077L34.9071 54.5534C33.2299 54.9042 31.5166 55.0834 29.8166 55.0834C26.5019 55.0834 23.2575 54.4219 20.1743 53.1198C14.1788 50.5862 9.30262 45.6544 6.79814 39.592L6.50975 38.8943H7.26109V38.8924ZM10.9438 30.4642C9.76178 29.3757 8.66132 28.0431 7.75819 26.6133C6.82091 25.1263 6.30673 23.565 6.23084 21.9674L6.22704 21.8702L6.2593 21.7787C6.43765 21.264 6.63118 20.753 6.83609 20.2631C9.27416 14.4391 13.767 9.79317 19.4894 7.1776L20.1288 6.88592L20.1971 7.58938C20.4817 10.51 22.1077 13.238 25.1662 15.9318C28.3215 18.7094 32.2679 20.9265 37.2333 22.709C41.8115 24.3542 45.777 26.7143 49.0176 29.7284C51.8522 32.363 53.3378 35.1921 53.4365 38.1356L53.4403 38.2309L53.408 38.3205C53.2392 38.8009 53.0589 39.2718 52.873 39.7198C50.4349 45.5457 45.9363 50.1954 40.2102 52.8091L39.567 53.1027L39.5006 52.3973C39.1021 48.1499 35.8881 45.1225 33.5069 43.2142C30.4617 40.7759 26.8681 38.8428 22.5232 37.3006C18.0323 35.7068 14.137 33.4077 10.9457 30.468L10.9438 30.4642ZM50.359 21.1782C50.1162 21.182 49.8733 21.1858 49.6304 21.1858C41.3296 21.1858 33.9186 18.4635 27.6005 13.0951C26.4906 12.1514 25.4527 10.7426 24.5135 8.90861C23.8969 7.70186 23.8817 6.54468 24.4718 5.64486L24.5856 5.47138L24.7887 5.42943C29.754 4.38854 34.8521 4.8823 39.5347 6.86114C45.5664 9.40999 50.4558 14.3761 52.9489 20.4842L53.2411 21.1972L52.4745 21.182C52.1197 21.1744 51.7573 21.1705 51.3874 21.1705C51.0496 21.1705 50.7062 21.1744 50.3609 21.1801L50.359 21.1782Z" fill="black"/>
<path d="M77.4093 20.509L76.8951 20.4251C75.6353 20.2688 72.2884 19.8513 72.2884 18.0783C72.2884 16.7648 74.2275 16.0652 75.6258 16.0652C78.246 16.0652 80.5513 17.1957 82.2798 18.1965L85.3629 14.1454C82.3386 11.9149 79.3977 10.9198 75.8421 10.9198C73.6052 10.9198 66.308 11.446 66.308 18.206C66.308 20.6805 67.3705 22.4783 69.5562 23.7041C71.4099 24.7431 73.6621 25.1339 75.3071 25.4198L75.4949 25.4523C75.6732 25.4828 75.8952 25.5133 76.1514 25.5476C77.6863 25.7554 80.2553 26.1023 80.2553 27.677C80.2553 29.0439 78.7242 30.0352 76.6162 30.0352C75.529 30.0352 74.3641 29.8503 73.1517 29.4862C72.5085 29.2936 71.8425 29.1945 71.1747 29.1945C69.1445 29.1945 67.1922 30.1305 65.9285 31.7014C68.9586 34.0711 72.4819 35.2225 76.7016 35.2225C79.7316 35.2225 82.0995 34.5591 83.7426 33.2532C85.3686 31.9588 86.1921 30.0981 86.1921 27.7209C86.1921 22.0074 81.3216 21.1743 77.4093 20.5071V20.509Z" fill="white"/>
<path d="M91.8765 4.70306C90.0436 4.70306 88.5523 6.12524 88.5523 7.87149C88.5523 9.61775 90.0436 11.0838 91.8765 11.0838C91.9637 11.0838 92.051 11.08 92.1383 11.0742C93.5328 10.9694 94.7225 9.94756 95.0336 8.59021C95.248 7.65417 95.0298 6.68762 94.436 5.93841C93.8136 5.15297 92.8802 4.70306 91.8765 4.70306Z" fill="white"/>
<path d="M88.9337 34.948H94.8856V13.5507C91.5957 13.6669 88.9337 16.2253 88.9337 19.2946V34.95V34.948Z" fill="white"/>
<path d="M189.804 4.70306C187.971 4.70306 186.479 6.12524 186.479 7.87149C186.479 9.61775 187.971 11.0838 189.804 11.0838C189.891 11.0838 189.978 11.08 190.065 11.0742C191.46 10.9694 192.65 9.94756 192.961 8.59021C193.175 7.65417 192.957 6.68762 192.363 5.93841C191.741 5.15297 190.807 4.70306 189.804 4.70306Z" fill="white"/>
<path d="M186.861 34.948H192.813V13.5507C189.523 13.6669 186.861 16.2253 186.861 19.2946V34.95V34.948Z" fill="white"/>
<path d="M149.84 10.9218C145.47 10.9218 137.208 13.4573 137.208 23.0521C137.208 25.3036 137.657 27.3053 138.543 29.0039C139.312 30.4776 140.412 31.7301 141.814 32.729C145.068 35.0453 148.779 35.2264 149.84 35.2264C152.246 35.2264 154.361 34.8203 156.13 34.0216C157.536 33.3848 158.727 32.4983 159.67 31.385C160.917 29.9133 161.399 28.4091 161.548 27.8315H161.306C158.883 27.8315 156.407 28.3481 153.95 29.3661C152.866 29.816 151.483 30.0429 149.838 30.0429C149.244 30.0429 144.021 29.9152 143.146 25.5247L143.089 25.2369H161.848C161.886 24.8041 161.956 23.8242 161.956 22.4936C161.742 14.9004 155.699 10.9256 149.84 10.9256V10.9218ZM143.289 21.1305L143.317 20.8636C143.562 18.5721 145.692 16.1071 149.798 16.1071C153.096 16.1071 155.354 18.5245 155.633 20.8617L155.665 21.1305H143.29H143.289Z" fill="white"/>
<path d="M175.295 20.509L174.78 20.4232C173.521 20.2669 170.174 19.8494 170.174 18.0764C170.174 16.7629 172.113 16.0633 173.511 16.0633C176.133 16.0633 178.437 17.1938 180.165 18.1946L183.248 14.1435C180.224 11.913 177.283 10.9179 173.727 10.9179C171.49 10.9179 164.193 11.4441 164.193 18.2042C164.193 20.6787 165.256 22.4764 167.442 23.7022C169.295 24.7412 171.547 25.132 173.19 25.418L173.378 25.4504C173.557 25.4809 173.779 25.5114 174.035 25.5457C175.57 25.7535 178.139 26.1004 178.139 27.6751C178.139 29.042 176.608 30.0333 174.5 30.0333C173.371 30.0333 172.16 29.8351 170.9 29.4443C170.263 29.246 169.605 29.1469 168.942 29.1469C166.895 29.1469 165.026 30.0772 163.808 31.6995C166.838 34.0711 170.363 35.2225 174.585 35.2225C177.615 35.2225 179.983 34.5591 181.626 33.2532C183.252 31.9588 184.075 30.0982 184.075 27.7209C184.075 22.0055 179.205 21.1743 175.293 20.5071L175.295 20.509Z" fill="white"/>
<path d="M207.217 20.509L206.703 20.4232C205.443 20.2669 202.096 19.8494 202.096 18.0764C202.096 16.7629 204.035 16.0633 205.434 16.0633C208.056 16.0633 210.359 17.1938 212.088 18.1946L215.171 14.1435C212.147 11.913 209.206 10.9179 205.65 10.9179C203.413 10.9179 196.116 11.4441 196.116 18.2042C196.116 20.6787 197.178 22.4764 199.364 23.7022C201.218 24.7412 203.47 25.132 205.113 25.418L205.301 25.4504C205.479 25.4809 205.701 25.5114 205.957 25.5457C207.492 25.7535 210.061 26.1004 210.061 27.6751C210.061 29.042 208.53 30.0333 206.422 30.0333C205.293 30.0333 204.083 29.8351 202.823 29.4443C202.186 29.246 201.527 29.1469 200.865 29.1469C198.818 29.1469 196.949 30.0772 195.731 31.6995C198.761 34.0711 202.286 35.2225 206.508 35.2225C209.538 35.2225 211.906 34.5591 213.549 33.2532C215.175 31.9588 215.998 30.0982 215.998 27.7209C215.998 22.0055 211.128 21.1743 207.215 20.5071L207.217 20.509Z" fill="white"/>
<path d="M131.091 4.72406H125.29V11.0114H122.452V16.1377H125.29V29.4214C125.29 31.7053 125.928 33.1637 127.296 34.0082C128.468 34.7326 130.168 35.0415 132.978 35.0415C133.785 35.0415 134.849 34.969 135.582 34.8947V29.9838C135.147 30.0238 134.697 30.0429 134.208 30.0429C131.091 30.0429 131.091 27.5131 131.091 26.2968V16.1357H131.326C133.766 16.1357 135.75 14.1321 135.75 11.6691V11.0094H131.089V4.72406H131.091Z" fill="white"/>
<path d="M111.229 10.5995C109.072 10.5995 106.556 11.6462 105.11 13.1446L104.706 13.564V11.0418H98.8093V34.948H104.706V22.2858C104.649 19.9085 105.173 18.1146 106.26 16.9555C107.364 15.7811 108.721 15.6077 109.432 15.6077C112.554 15.6077 114.202 17.3958 114.202 20.7778V28.4072C114.202 31.9016 116.916 34.8127 120.27 34.9442V20.7778C120.27 13.9281 117.312 10.5995 111.229 10.5995Z" fill="white"/>
<path d="M66.6571 49.429C66.6571 45.927 68.9586 43.6469 72.2277 43.6469C75.1135 43.6469 77.2973 45.2731 77.2973 47.82V48.0202H76.0129V47.82C76.0129 45.9098 74.6961 44.8041 72.2429 44.8041C69.4576 44.8041 67.9055 46.3788 67.9055 49.429C67.9055 52.4792 69.4576 54.0539 72.2429 54.0539C74.6942 54.0539 76.0129 52.9482 76.0129 51.038V50.8378H77.2973V51.038C77.2973 53.585 75.1287 55.2111 72.2277 55.2111C68.9586 55.2111 66.6571 52.9311 66.6571 49.429Z" fill="white"/>
<path d="M78.8835 55.0434V46.7639H79.9517V49.0268H80.0352C80.2857 47.7037 81.2191 46.5961 82.9381 46.5961C84.8393 46.5961 85.6741 48.0031 85.6741 49.5453V50.367H84.4901V49.7302C84.4901 48.3233 83.9058 47.6351 82.4714 47.6351C80.8036 47.6351 80.0694 48.6913 80.0694 50.5519V55.0434H78.8854H78.8835Z" fill="white"/>
<path d="M86.6209 50.9046C86.6209 48.39 88.2886 46.598 90.9411 46.598C93.3602 46.598 95.0773 48.0049 95.0773 50.4699C95.0773 50.7711 95.0431 51.0228 94.9938 51.2401H87.7384C87.8048 53.1007 88.7554 54.2236 90.9411 54.2236C92.8764 54.2236 93.7757 53.503 93.7757 52.2962V52.178H94.9596V52.2962C94.9596 54.0215 93.2577 55.213 90.9563 55.213C88.3038 55.213 86.619 53.5373 86.619 50.9065L86.6209 50.9046ZM87.7384 50.5023H93.9597V50.2507C93.9597 48.5082 92.8593 47.5855 90.924 47.5855C88.7895 47.5855 87.8219 48.6912 87.7384 50.5023Z" fill="white"/>
<path d="M96.2119 53.0988C96.2119 51.7415 97.3294 51.1543 98.8643 50.9866L102.784 50.55V49.9133C102.784 48.3043 102.084 47.6675 100.282 47.6675C98.4792 47.6675 97.5798 48.3043 97.5798 49.7627V49.8294H96.3959V49.7627C96.3959 48.0202 97.8303 46.5961 100.365 46.5961C102.9 46.5961 103.934 48.0374 103.934 49.8637V55.0415H102.866V52.8129H102.782C102.299 54.338 100.847 55.2092 98.9288 55.2092C97.3104 55.2092 96.21 54.439 96.21 53.0969L96.2119 53.0988ZM99.1983 54.2884C101.2 54.2884 102.784 53.4001 102.784 51.406V51.3392L99.2324 51.7415C97.9973 51.8597 97.3977 52.1609 97.3977 53.015C97.3977 53.869 97.9479 54.2884 99.1983 54.2884Z" fill="white"/>
<path d="M109.154 55.0433C107.52 55.0433 106.469 54.357 106.469 52.4125V47.7876H105V46.7657H106.469V44.7888H107.67V46.7657H110.939V47.7876H107.67V52.4792C107.67 53.6364 108.237 53.9548 109.438 53.9548H110.939V55.0433H109.154Z" fill="white"/>
<path d="M112.239 45.7096V43.8166H113.423V45.7096H112.239ZM112.239 55.0434V46.7639H113.423V55.0434H112.239Z" fill="white"/>
<path d="M118.511 55.0433L114.574 46.7639H115.859L119.194 53.869H119.295L122.613 46.7639H123.898L119.961 55.0433H118.509H118.511Z" fill="white"/>
<path d="M124.647 50.9046C124.647 48.39 126.315 46.598 128.967 46.598C131.387 46.598 133.104 48.0049 133.104 50.4699C133.104 50.7711 133.069 51.0228 133.02 51.2401H125.765C125.831 53.1007 126.782 54.2236 128.967 54.2236C130.903 54.2236 131.802 53.503 131.802 52.2962V52.178H132.986V52.2962C132.986 54.0215 131.284 55.213 128.983 55.213C126.33 55.213 124.645 53.5373 124.645 50.9065L124.647 50.9046ZM125.765 50.5023H131.986V50.2507C131.986 48.5082 130.886 47.5855 128.95 47.5855C126.816 47.5855 125.848 48.6912 125.765 50.5023Z" fill="white"/>
<path d="M137.323 49.429C137.323 45.927 139.625 43.6469 142.894 43.6469C145.78 43.6469 147.964 45.2731 147.964 47.82V48.0202H146.679V47.82C146.679 45.9098 145.362 44.8041 142.909 44.8041C140.124 44.8041 138.572 46.3788 138.572 49.429C138.572 52.4792 140.122 54.0539 142.909 54.0539C145.36 54.0539 146.679 52.9482 146.679 51.038V50.8378H147.964V51.038C147.964 53.585 145.795 55.2111 142.894 55.2111C139.625 55.2111 137.323 52.9311 137.323 49.429Z" fill="white"/>
<path d="M149.115 50.9046C149.115 48.39 150.901 46.598 153.585 46.598C156.27 46.598 158.073 48.3919 158.073 50.9046C158.073 53.4172 156.287 55.2111 153.585 55.2111C150.884 55.2111 149.115 53.4172 149.115 50.9046ZM156.904 50.9046C156.904 48.9105 155.853 47.6694 153.585 47.6694C151.318 47.6694 150.282 48.9086 150.282 50.9046C150.282 52.9006 151.316 54.1397 153.585 54.1397C155.855 54.1397 156.904 52.9158 156.904 50.9046Z" fill="white"/>
<path d="M159.638 55.0434V46.7639H160.706V49.2613H160.772C161.006 47.8696 161.956 46.5961 164.007 46.5961C165.842 46.5961 166.876 47.7362 167.144 49.3452H167.227C167.461 47.9211 168.445 46.5961 170.513 46.5961C172.581 46.5961 173.782 48.1212 173.782 50.2164V55.0434H172.599V50.3841C172.599 48.5407 171.815 47.6866 170.081 47.6866C168.096 47.6866 167.295 48.8438 167.295 51.038V55.0434H166.112V50.3841C166.112 48.5407 165.345 47.6866 163.609 47.6866C161.607 47.6866 160.824 48.8438 160.824 51.038V55.0434H159.64H159.638Z" fill="white"/>
<path d="M175.716 57.8915V46.7639H176.784V49.0935H176.917C177.283 47.6027 178.518 46.5961 180.469 46.5961C183.038 46.5961 184.504 48.3901 184.504 50.9027C184.504 53.4153 183.053 55.2092 180.434 55.2092C178.617 55.2092 177.298 54.2046 176.915 52.6127H176.898V57.8915H175.714H175.716ZM180.12 54.1207C182.038 54.1207 183.305 53.299 183.305 50.9027C183.305 48.5063 182.021 47.7018 180.154 47.7018C178.103 47.7018 176.902 48.859 176.902 50.9027V51.0533C176.902 53.015 178.186 54.1207 180.121 54.1207H180.12Z" fill="white"/>
<path d="M185.523 53.0988C185.523 51.7415 186.641 51.1543 188.176 50.9866L192.096 50.55V49.9133C192.096 48.3043 191.395 47.6675 189.593 47.6675C187.79 47.6675 186.891 48.3043 186.891 49.7627V49.8294H185.707V49.7627C185.707 48.0202 187.142 46.5961 189.676 46.5961C192.211 46.5961 193.245 48.0374 193.245 49.8637V55.0415H192.177V52.8129H192.094C191.61 54.338 190.158 55.2092 188.24 55.2092C186.622 55.2092 185.521 54.439 185.521 53.0969L185.523 53.0988ZM188.508 54.2884C190.509 54.2884 192.094 53.4001 192.094 51.406V51.3392L188.542 51.7415C187.309 51.8597 186.707 52.1609 186.707 53.015C186.707 53.869 187.257 54.2884 188.508 54.2884Z" fill="white"/>
<path d="M195.196 55.0434V46.7639H196.264V49.3623H196.347C196.63 47.9554 197.799 46.598 199.85 46.598C202.168 46.598 203.32 48.2566 203.32 50.2183V55.0453H202.136V50.386C202.136 48.676 201.318 47.6885 199.434 47.6885C197.433 47.6885 196.382 48.9124 196.382 51.0399V55.0453H195.198L195.196 55.0434Z" fill="white"/>
<path d="M205.303 57.8915V56.8029H206.553C207.388 56.8029 207.705 56.5513 208.022 55.865L208.422 55.0262L204.335 46.7639H205.637L208.056 51.69L208.972 53.7184H209.073L209.957 51.6747L212.241 46.7639H213.543L209.073 56.1986C208.471 57.4721 207.705 57.8915 206.337 57.8915H205.303Z" fill="white"/>
<path d="M214.177 55.0434V52.7137H215.645V55.0434H214.177Z" fill="white"/>
</svg>
